<svg xmlns="http://www.w3.org/2000/svg" viewBox="0 0 220 240" role="img" aria-label="Fuego, la llama mascota de SucreGas">
  <defs>
    <linearGradient id="out" x1="0" y1="1" x2="0" y2="0">
      <stop offset="0" stop-color="#fb923c"/>
      <stop offset="0.55" stop-color="#fbbf24"/>
      <stop offset="1" stop-color="#fef3c7"/>
    </linearGradient>
    <linearGradient id="in" x1="0" y1="1" x2="0" y2="0">
      <stop offset="0" stop-color="#fbbf24"/>
      <stop offset="1" stop-color="#fff7d6"/>
    </linearGradient>
  </defs>

  <path d="M38 60 l2.6 3.9 3.9 2.6 -3.9 2.6 -2.6 3.9 -2.6 -3.9 -3.9 -2.6 3.9 -2.6 Z" fill="#fcd34d"/>
  <path d="M184 84 l2.4 3.6 3.6 2.4 -3.6 2.4 -2.4 3.6 -2.4 -3.6 -3.6 -2.4 3.6 -2.4 Z" fill="#fde68a"/>
  <path d="M152 44 l2.2 3.4 3.4 2.2 -3.4 2.2 -2.2 3.4 -2.2 -3.4 -3.4 -2.2 3.4 -2.2 Z" fill="#fbbf24"/>

  <path d="M110 14 C64 64 46 104 46 146 c0 40 28 68 64 68 s64 -28 64 -68 c0 -42 -18 -82 -64 -132 Z" fill="url(#out)"/>
  <ellipse cx="90" cy="94" rx="16" ry="34" fill="#fff" opacity="0.22" transform="rotate(18 90 94)"/>

  <path d="M110 96 C88 130 82 154 82 174 c0 20 12 34 28 34 s28 -14 28 -34 c0 -20 -6 -44 -28 -78 Z" fill="url(#in)" opacity="0.95"/>

  <path d="M72 148 C50 150 38 158 34 174 C45 165 56 161 66 158 Z" fill="#fbbf24"/>
  <path d="M148 148 C170 150 182 158 186 174 C175 165 164 161 154 158 Z" fill="#fbbf24"/>

  <ellipse cx="110" cy="160" rx="9.5" ry="8" fill="#7c2d12"/>
  <ellipse cx="110" cy="166" rx="5" ry="4" fill="#fb7185"/>

  <circle cx="88" cy="133" r="10" fill="#12283f"/>
  <circle cx="85.5" cy="130" r="3.5" fill="#fff"/>
  <circle cx="91" cy="137" r="1.8" fill="#fff" opacity="0.85"/>

  <circle cx="132" cy="133" r="10" fill="#12283f"/>
  <circle cx="129.5" cy="130" r="3.5" fill="#fff"/>
  <circle cx="135" cy="137" r="1.8" fill="#fff" opacity="0.85"/>

  <ellipse cx="76" cy="149" rx="8" ry="5.5" fill="#fb7185" opacity="0.9"/>
  <ellipse cx="144" cy="149" rx="8" ry="5.5" fill="#fb7185" opacity="0.9"/>
</svg>
